<?xml version="1.0" encoding="UTF-8"?> <svg xmlns="http://www.w3.org/2000/svg" viewBox="0 0 22 16.054"><defs><style>.a,.b{fill:none;stroke:#1d63ed;stroke-linecap:round;stroke-linejoin:round;stroke-width:2px;}.a{opacity:0.4;isolation:isolate;}</style></defs><path class="a" d="M20.581,3.2a2.525,2.525,0,0,0-1.763-1.818A65.436,65.436,0,0,0,11,1s-6.254,0-7.818.418A2.525,2.525,0,0,0,1.419,3.236,26.379,26.379,0,0,0,1,8.045a26.227,26.227,0,0,0,.418,4.845,2.526,2.526,0,0,0,1.763,1.746c1.564.418,7.818.418,7.818.418s6.254,0,7.818-.418a2.529,2.529,0,0,0,1.763-1.818A26.344,26.344,0,0,0,21,8.045,26.242,26.242,0,0,0,20.581,3.2Z"></path><path class="b" d="M8.75,5.465c0-.477,0-.716.1-.849a.5.5,0,0,1,.364-.2c.166-.012.367.117.769.375l3.942,2.535c.349.224.523.336.583.478a.5.5,0,0,1,0,.389c-.06.143-.234.255-.583.479L9.983,11.208c-.4.258-.6.387-.769.375a.5.5,0,0,1-.364-.2c-.1-.134-.1-.372-.1-.849Z"></path></svg> 